<svg width="4405" height="4435" xmlns="http://www.w3.org/2000/svg" xmlns:xlink="http://www.w3.org/1999/xlink" xml:space="preserve" overflow="hidden"><defs><clipPath id="clip0"><rect x="409" y="409" width="4405" height="4435"/></clipPath></defs><g clip-path="url(#clip0)" transform="translate(-409 -409)"><path d="M4641.59 2774.88C4528.78 2754.3 4420.72 2829.88 4400.54 2943.05 4277.44 3631.97 3760.1 4191.88 3083.25 4369.16 2122.6 4621.22 1135.82 4044.68 884.079 3083.92 631.942 2123.55 1209.05 1137.07 2169.7 885.4 2635.18 763.524 3120.06 830.001 3535.67 1072.57 3950.89 1315.53 4246.96 1705.29 4368.87 2170.64 4398.16 2281.44 4511.37 2347.91 4622.59 2319.03 4733.82 2289.75 4800.31 2176.18 4771.02 2065.38 4621.01 1492.41 4256.85 1012.82 3745.46 713.665 3234.06 414.91 2637.16 333 2064.41 483.367 881.704 793.201 172 2007.21 481.926 3189.57 742.771 4183.97 1643.26 4844 2626.47 4844 2812.11 4844 3000.92 4820.26 3188.54 4771.19 4021.74 4553.16 4658.21 3864.24 4809.81 3015.86 4830 2903.08 4754.79 2795.06 4641.59 2774.88ZM3860.64 2627.28C3860.64 2512.53 3767.62 2419.54 3652.83 2419.54L2240.55 2419.54 2838.24 1822.03C2919.78 1740.91 2919.78 1609.14 2838.24 1528.02 2757.09 1446.9 2625.68 1446.9 2544.54 1528.02L1594.18 2478.1C1593.39 2478.89 1592.59 2479.29 1591.8 2480.08 1540.74 2531.12 1521.74 2601.56 1534.81 2666.85 1542.33 2706.42 1561.33 2744.01 1591.8 2774.48 1592.2 2774.88 1592.59 2774.88 1592.99 2775.27L2544.54 3726.54C2584.91 3766.9 2638.35 3787.48 2691.39 3787.48 2744.82 3787.48 2797.86 3766.9 2838.63 3726.54 2919.78 3645.42 2919.78 3513.65 2838.24 3432.53L2240.55 2835.02 3652.83 2835.02C3767.62 2835.02 3860.64 2742.03 3860.64 2627.28Z" fill="#2D5695" fill-rule="evenodd"/></g></svg>