<svg width="4569" height="4579" xmlns="http://www.w3.org/2000/svg" xmlns:xlink="http://www.w3.org/1999/xlink" xml:space="preserve" overflow="hidden"><defs><clipPath id="clip0"><rect x="314" y="309" width="4569" height="4579"/></clipPath></defs><g clip-path="url(#clip0)" transform="translate(-314 -309)"><path d="M1161.68 3002.02 716.529 3258.78 1086.87 3900.65 1532.84 3643.08C1721.28 3835.24 1961.23 3976.7 2230.61 4044.97L2230.61 4560.93 2971.71 4560.93 2971.71 4043.75C3239.45 3974.65 3478.17 3833.19 3665.8 3641.04L4115.03 3900.65 4485.38 3258.78 4036.14 2999.16C4071.7 2871.6 4090.51 2737.51 4090.51 2598.5 4090.51 2459.49 4071.7 2325.4 4036.14 2197.84L4485.38 1938.22 4115.03 1296.35 3665.8 1555.96C3478.17 1363.81 3239.45 1222.35 2971.71 1153.25L2971.71 636.071 2230.61 636.071 2230.61 1152.03C1961.23 1220.3 1721.28 1361.76 1532.84 1553.92L1086.87 1296.35 716.529 1938.22 1161.68 2194.98C1125.71 2323.35 1106.49 2458.68 1106.49 2598.5 1106.49 2738.32 1125.71 2873.65 1161.68 3002.02ZM798.691 2863.84C786.019 2775.94 779.479 2687.22 779.479 2598.5 779.479 2529.41 783.158 2461.13 790.924 2394.08L396.054 2166.36C317.979 2120.98 291 2021.22 336.373 1942.72L870.226 1017.93C915.599 939.839 1015.34 912.856 1093.41 957.828L1467.03 1173.7C1599.06 1069.03 1745.81 981.949 1903.59 916.535L1903.59 472.536C1903.59 382.182 1976.76 309 2067.1 309L3135.21 309C3225.14 309 3298.72 382.182 3298.72 472.536L3298.72 918.579C3454.46 983.994 3599.57 1069.85 3729.97 1173.7L4103.59 958.237C4181.66 912.856 4281.4 939.839 4326.77 1017.93L4860.63 1942.72C4906 2021.22 4879.02 2120.98 4800.95 2166.36L4406.08 2394.08C4413.84 2461.95 4417.52 2530.22 4417.52 2598.5 4417.52 2687.22 4410.98 2775.94 4398.31 2863.84L4775.19 3081.34C4853.68 3126.72 4880.25 3226.48 4835.28 3304.97L4301.02 4229.77C4256.06 4307.86 4155.91 4334.84 4077.83 4289.87L3681.33 4060.51C3562.79 4148.41 3434.43 4221.59 3298.72 4278.42L3298.72 4724.46C3298.72 4814.82 3225.14 4888 3135.21 4888L2067.1 4888C1976.76 4888 1903.59 4814.82 1903.59 4724.46L1903.59 4280.46C1765.84 4223.23 1635.44 4149.64 1515.67 4060.51L1119.17 4289.87C1041.09 4334.84 940.943 4307.86 895.978 4229.77L361.717 3304.97C316.753 3226.48 343.323 3126.72 421.806 3081.34L798.691 2863.84ZM2598.5 3441.94C2132.91 3441.94 1755.62 3064.17 1755.62 2598.5 1755.62 2132.83 2132.91 1755.47 2598.5 1755.47 3064.09 1755.47 3441.79 2132.83 3441.79 2598.5 3441.79 3064.17 3064.09 3441.94 2598.5 3441.94ZM2598.5 3114.86C2883.41 3114.86 3114.78 2883.46 3114.78 2598.5 3114.78 2313.54 2883.41 2082.54 2598.5 2082.54 2313.59 2082.54 2082.63 2313.54 2082.63 2598.5 2082.63 2883.46 2313.59 3114.86 2598.5 3114.86Z" fill="#2D5695" fill-rule="evenodd"/></g></svg>